PathFileType	4	(X/Y/Z)	C:/Users/beibeiliu/ov580/test_trc\sequence.23_training_dense_right.trc
DataRate	CameraRate	NumFrames	NumMarkers	Units	OrigDataRate	OrigDataStartFrame	OrigNumFrames
120	120	16	19	mm	120	217	289
Frame#	Time	ThumbCMC			ThumbMCP			ThumbIP			ThumbTip			IndexMCP			IndexPIP			IndexTip			MiddleMCP			MiddlePIP			MiddleTip			RingMCP			RingPIP			RingTip			PinkyMCP			PinkyPIP			PinkyTip			BackHand1			BackHand2			BackHand3	
		X0	Y0	Z0	X1	Y1	Z1	X2	Y2	Z2	X3	Y3	Z3	X4	Y4	Z4	X5	Y5	Z5	X6	Y6	Z6	X7	Y7	Z7	X8	Y8	Z8	X9	Y9	Z9	X10	Y10	Z10	X11	Y11	Z11	X12	Y12	Z12	X13	Y13	Z13	X14	Y14	Z14	X15	Y15	Z15	X16	Y16	Z16	X17	Y17	Z17	X18	Y18	Z18	
216	1.8	203.842	22.5552	12.7507	201.559	14.8174	-11.3443	194.745	15.8607	-33.8557	182.109	16.7753	-47.9784	234.846	29.3513	-44.0236	233.242	1.82084	-45.9873	226.301	0.88024	-16.0356	250.935	21.1517	-38.4514	243.35	-9.73288	-33.8827	228.644	-2.34099	-8.34966	267.367	15.0279	-34.7444	256.617	-8.23506	-33.6239	240.917	-3.87366	-8.19859	287.022	25.2353	-12.5064	296.305	26.703	-30.2139	311.123	28.0128	-43.7232	259.164	39.1572	12.2291	253.723	33.9535	37.5237	232.066	40.6778	20.743	
217	1.80833	200.466	14.23	14.7998	193.952	7.52804	-9.15163	185.217	8.98929	-32.3828	178.55	6.77857	-43.956	224.78	27.8977	-45.4231	227.198	-0.906908	-46.8246	222.033	-1.51416	-16.1772	247.045	18.1807	-40.6758	243.204	-9.4738	-35.3885	229.27	-2.28249	-5.28939	262.05	18.4223	-35.6377	255.565	-7.76672	-32.5999	239.434	-6.08802	-9.73136	280.29	32.1871	-13.3788	289.145	34.8455	-29.1968	296.659	41.6547	-44.4333	252.058	37.2183	13.7957	246.62	34.5107	36.2876	223.65	38.2243	18.5329	
218	1.81667	196.629	8.09612	16.0077	190.362	1.55903	-10.0052	178.896	1.80856	-30.8121	168.457	-1.15805	-40.4261	217.107	24.3556	-44.6792	223.05	-3.1874	-46.1141	220.493	-3.71951	-14.9374	237.17	20.1199	-41.7714	240.314	-10.221	-35.7078	226.574	-4.57319	-5.40538	255.077	20.4062	-36.8694	254.409	-4.71858	-36.0376	239.498	-6.73897	-10.6721	267.804	37.7887	-15.3209	279.4	41.1964	-28.1553	284.807	48.8224	-50.3455	241.873	39.8437	15.0438	235.862	33.2715	37.7399	217.27	35.763	18.895	
219	1.825	194.234	0.555332	17.1254	184.068	-6.66631	-7.54534	173.207	-5.30909	-28.2545	163.118	-9.74626	-38.2814	211.3	22.0645	-42.4349	220.917	-4.79606	-44.9544	216.46	-7.95471	-17.4636	230.465	19.4683	-43.5334	235.936	-8.25787	-39.3576	223.7	-7.86721	-8.92194	248.891	23.7537	-37.9307	246.472	-1.97579	-38.022	234.453	-6.0815	-12.0622	258.158	42.6298	-19.7417	264.294	45.9403	-32.548	271.811	52.8919	-50.5504	234.474	38.2434	12.3972	229.179	29.9839	36.0011	206.889	27.8693	20.6996	
220	1.83333	187.442	-4.77556	18.0174	181.927	-9.54179	-8.12406	168.628	-13.4539	-25.0016	156.158	-15.6942	-37.465	198.753	16.8579	-45.6794	211.894	-8.12102	-45.9742	208.184	-9.84796	-16.6427	222.697	19.896	-44.5649	227.704	-9.93184	-39.6486	222.02	-6.15032	-9.61162	235.535	28.606	-36.8627	241.826	0.553381	-40.4771	230.794	-5.01885	-15.0078	246.904	43.7334	-21.2584	256.33	52.086	-38.3719	255.5	57.7199	-54.0816	227.497	38.4987	11.225	223.646	26.7946	37.1046	200.608	26.9641	16.1348	
221	1.84167	186.327	-7.89317	17.6917	178.538	-16.5107	-4.19532	167.767	-17.366	-21.0298	152.592	-21.1584	-34.0116	193.161	16.3712	-44.3211	207.009	-5.15859	-48.6121	203.76	-12.0404	-18.1203	213.142	21.0773	-42.4866	220.285	-9.5885	-41.2946	215.762	-6.51189	-11.2433	228.032	29.2248	-37.2037	234.87	1.25204	-41.6184	225.425	-5.0833	-17.7265	241.835	46.5204	-19.9469	241.069	51.8542	-37.7531	246.558	59.7327	-54.9086	218.836	37.847	13.4029	218.465	26.0223	36.8592	195.53	24.4704	21.3984	
222	1.85	185.367	-9.26311	18.1013	179.436	-16.5787	-1.80686	161.783	-19.7633	-21.2655	152.616	-26.543	-29.1136	185.281	13.5942	-42.706	202.319	-6.6026	-46.6592	201.283	-11.7606	-19.3856	203.381	20.5901	-42.0845	215.8	-8.56789	-42.5853	211.448	-7.98796	-12.9466	219.277	27.862	-42.0095	228.006	3.89734	-43.72	222.932	-2.7555	-15.1354	231.811	49.6034	-24.9477	230.915	54.784	-42.7215	228.793	59.9532	-57.2683	215.409	39.2962	11.8439	215.835	28.82	33.3179	189.885	21.9123	19.2806	
223	1.85833	187.272	-8.46905	19.5447	175.087	-16.2253	-4.47711	165.867	-19.849	-18.3088	147.747	-27.4568	-31.4632	178.615	12.9838	-40.1263	193.324	-8.72341	-48.4653	198.839	-8.28274	-17.2012	198.545	18.2386	-44.6971	214.449	-6.45261	-41.7375	210.303	-5.59092	-13.4623	215.642	28.9954	-44.0698	221.882	3.17462	-43.4681	220.708	-1.35507	-14.7869	224.518	46.9646	-20.9415	221.672	55.8342	-43.8696	223.262	61.5236	-62.9557	208.306	38.8979	11.5989	212.076	31.4775	34.3028	188.089	22.2972	23.8642	
224	1.86667	184.327	-9.08963	20.4816	176.733	-13.6349	-5.44023	165.047	-18.2205	-20.9634	151.508	-27.1877	-31.3118	177.717	14.5428	-41.0888	193.177	-5.17021	-47.9972	196.434	-7.60321	-17.0604	195.094	20.7997	-44.3541	214.578	-3.71964	-42.5579	208.367	-4.3308	-12.5553	212.616	33.2572	-39.4531	222.089	5.43384	-44.2581	217.036	1.23982	-16.2348	220.584	51.5214	-24.2792	216.88	57.8391	-42.659	216.713	64.883	-58.5802	208.139	42.0309	7.77699	213.474	31.7743	32.2434	188.469	24.718	23.2455	
225	1.875	184.033	-6.18689	18.0404	177.531	-14.6333	-4.47422	164.166	-16.1788	-23.2326	152.59	-24.0651	-34.2239	177.786	19.4485	-41.98	191.792	-4.87536	-49.0422	199.416	-3.91778	-20.7142	196.23	23.3209	-45.3959	209.753	-2.20653	-44.9225	209.144	-2.55494	-14.8245	212.377	34.4415	-44.8983	217.714	9.97072	-45.7907	222.01	3.99161	-18.2258	216.439	54.9356	-26.7412	220.527	63.3182	-42.0563	214.698	72.0139	-61.482	204.721	42.0543	5.97382	214.306	36.3372	31.4447	186.764	25.9114	23.4592	
226	1.88333	188.224	-3.40205	19.1699	175.179	-11.862	-8.65133	165.363	-15.6611	-23.5385	151.401	-22.7536	-36.4594	174.831	20.9327	-40.4784	194.753	2.69075	-51.7587	201.378	-1.87201	-24.3104	199.361	27.3792	-47.691	210.569	0.885032	-46.2588	210.064	2.18526	-15.0952	210.828	36.8466	-46.2668	220.134	15.1626	-48.2281	219.521	6.34261	-22.0772	219.555	57.0918	-24.8023	217.44	64.707	-42.6391	214.883	75.9691	-56.0898	206.433	49.5671	5.78598	211.722	36.3012	32.3393	187.123	27.4519	19.8578	
227	1.89167	187.969	-0.655874	17.8094	176.165	-11.7758	-7.65568	165.346	-11.6499	-26.9191	155.519	-18.1987	-37.2834	178.164	24.5647	-45.6752	195.309	3.17998	-51.2354	199.809	0.836759	-24.3579	198.027	30.7619	-48.6105	210.537	4.68767	-48.448	210.526	4.02261	-17.1795	209.578	40.1047	-46.9773	218.186	16.4169	-49.7086	220.923	9.83662	-19.989	217.813	61.1763	-27.8824	216.734	69.9959	-45.5804	216.594	80.5983	-58.6103	205.374	50.0788	5.3145	211.123	39.4065	32.2247	189.212	31.4973	21.3535	
228	1.9	181.295	-1.13328	13.4174	174.282	-10.9226	-6.88512	163.732	-9.51869	-27.6619	151.564	-17.7119	-40.2236	176.116	26.3013	-43.8051	191.732	7.31823	-55.6454	196.713	-0.266934	-23.1964	195.458	34.3839	-46.2414	209.766	8.67166	-50.4216	207.043	3.71161	-17.9756	205.473	43.3813	-43.9072	219.804	19.084	-50.1745	218.174	11.0292	-22.0887	219.39	63.8761	-26.7364	215.631	70.4913	-41.4418	209.509	82.5959	-57.9625	202.634	50.2385	7.31444	208.09	40.9659	30.3429	182.022	31.372	17.2555	
229	1.90833	181.943	-0.845248	15.0005	175.423	-9.02861	-6.84511	161.748	-10.7836	-26.5419	152.791	-17.3053	-38.8555	173.061	26.8343	-45.4278	190.724	8.1173	-55.9927	197.917	4.31473	-23.1465	189.009	32.8834	-46.6322	209.976	8.37555	-49.1403	205.096	6.80862	-18.3433	203.038	43.9893	-48.8635	216.549	20.3516	-51.4889	219.121	12.3255	-27.56	214.686	67.3582	-30.4115	209.473	72.4693	-47.0056	207.919	84.3889	-60.7759	201.484	53.6754	2.70975	206.863	41.6341	31.5129	180.891	32.0791	18.2503	
230	1.91667	182.564	5.18351	12.7151	173.192	-4.43613	-10.9674	161.665	-8.45743	-27.3522	148.199	-12.5385	-42.4128	170.495	27.3412	-45.5992	189.026	10.9633	-55.9071	194.388	2.54114	-26.9278	190.682	36.949	-47.5263	206.434	8.95481	-50.904	205.387	5.74473	-22.0516	200.986	45.3935	-45.9515	215.863	21.7683	-50.9191	214.343	14.9764	-23.9998	212.068	67.1673	-31.1031	211.294	75.0449	-47.007	208.577	82.3237	-58.7086	202.667	54.2647	6.23052	208.779	45.6056	31.2536	181.425	32.1116	18.1165	
231	1.925	178.843	2.84369	13.8114	169.131	-4.67534	-10.548	157.142	-9.04897	-25.4126	145.886	-10.9566	-40.2339	168.134	27.5176	-45.7061	187.694	6.58075	-53.0796	193.528	6.66892	-24.033	191.626	37.4458	-48.044	206.05	10.5488	-50.2031	206.59	8.81739	-20.9473	201.437	45.6759	-46.1925	212.852	24.1216	-52.6298	216.942	16.0917	-26.3417	215.83	68.1216	-28.4845	213.467	75.2557	-47.8526	206.952	83.3077	-59.9293	200.402	54.4133	5.3213	206.032	47.7077	28.3414	182.082	37.324	16.3116	
